<svg width="478" height="119" viewBox="0 0 478 119" fill="none" xmlns="http://www.w3.org/2000/svg">
<path d="M129.855 85H105.061V82.333H111.877L104.469 63.3673H84.5152L77.3043 82.333H82.5396C82.9347 82.333 83.2969 82.3659 83.6262 82.4317C84.5481 82.6293 85.0091 83.4854 85.0091 85H67.0312V82.333H73.3531L95.0846 25.7324H101.209L124.323 82.333H127.385C127.846 82.333 128.209 82.3659 128.472 82.4317C129.394 82.6293 129.855 83.4854 129.855 85ZM103.283 60.404L94.3931 37.2896L85.6018 60.404H103.283ZM164.23 85H132.423V82.333H140.325V28.3995H132.423V25.7324H180.627L181.023 44.698H178.454L176.577 38.1786C176.577 38.1128 176.545 38.0469 176.479 37.9811C174.437 31.5933 170.651 28.3995 165.119 28.3995H152.475V52.9955H171.935V55.9589H152.475V82.333H164.23V85ZM212.237 85H184.282V82.333H192.185V28.3995H184.282V25.7324H216.089C221.292 25.7324 225.704 26.9507 229.326 29.3873C233.672 32.3506 235.845 36.3018 235.845 41.2408C235.845 42.8871 235.582 44.5334 235.055 46.1797C233.211 51.5138 228.931 55.0699 222.214 56.8479L237.722 82.4317H239.796C240.191 82.4317 240.586 82.4647 240.982 82.5305C241.838 82.7281 242.266 83.5512 242.266 85L225.671 85.0988L210.656 57.9345H204.334V82.333H212.237V85ZM211.15 28.3995H204.334V54.9711H211.743C214.048 54.9711 216.089 54.3455 217.867 53.0943C221.226 50.6577 222.905 46.8053 222.905 41.5371C222.905 39.4957 222.576 37.5859 221.917 35.8079C220.073 30.8689 216.484 28.3995 211.15 28.3995ZM293.433 44.3029H290.865L288.988 38.1786C288.791 37.5201 288.56 36.8945 288.297 36.3018C286.19 31.0336 282.601 28.3995 277.53 28.3995H264.886V52.9955H284.346V55.9589H264.886V82.333H277.53C278.847 82.333 280.065 82.1683 281.185 81.8391C284.609 80.7854 287.177 77.6903 288.89 72.5538L290.865 66.4295H293.433L293.038 85H244.834V82.333H252.736V28.3995H244.834V25.7324H293.038L293.433 44.3029ZM349.738 85H300.249V82.9256L336.699 28.3007L318.82 28.3995C315.527 28.4653 312.86 30.5726 310.819 34.7213L306.769 43.6115H304.102L304.892 25.7324H349.342V27.9056L313.782 82.333H334.822C339.695 82.2671 342.922 79.5013 344.502 74.0355L347.169 64.5527H349.935L349.738 85ZM404.165 85H354.677V82.9256L391.126 28.3007L373.247 28.3995C369.954 28.4653 367.287 30.5726 365.246 34.7213L361.196 43.6115H358.529L359.319 25.7324H403.77V27.9056L368.209 82.333H389.249C394.122 82.2671 397.349 79.5013 398.93 74.0355L401.597 64.5527H404.363L404.165 85ZM441.997 24.7446C449.241 24.7446 455.563 26.7531 460.963 30.7702C468.602 36.4335 472.421 44.6651 472.421 55.465C472.421 64.5527 469.326 71.9941 463.136 77.7891C457.275 83.2549 450.13 85.9878 441.701 85.9878C434.26 85.9878 427.74 83.8146 422.143 79.4684C414.701 73.6733 410.981 65.5405 410.981 55.0699C410.981 45.9822 414.109 38.5737 420.365 32.8445C426.292 27.4446 433.502 24.7446 441.997 24.7446ZM441.997 83.1232C443.578 83.1232 445.06 82.9586 446.443 82.6293C454.608 80.4562 458.691 71.2697 458.691 55.0699C458.691 50.7894 458.395 47.0029 457.802 43.7103C455.892 32.9762 450.525 27.6092 441.701 27.6092C441.108 27.6092 440.483 27.6422 439.824 27.708C429.749 28.6299 424.711 37.8823 424.711 55.465C424.711 61.26 425.238 66.1661 426.292 70.1831C428.596 78.8098 433.832 83.1232 441.997 83.1232Z" fill="black"/>
<path d="M44.334 22.335C52.6389 20.5639 70.7731 19.1457 75.2314 29.5361C77.1624 34.0366 75.6473 44.4971 58.7363 48.5859C65.3185 44.3269 75.8299 34.9855 66.4023 29.5361C61.4941 26.6994 29.5117 31.6922 20.4043 56.252C16.7421 66.1276 18.971 85.0968 50.373 79.4844C53.6328 78.9018 61.6183 76.3246 67.5654 71.1211C63.306 78.0131 48.8455 91.1888 25.0527 89.0088C13.5191 87.952 -7.19249 79.2812 2.51855 52.5361C5.33659 44.7752 17.7763 27.9985 44.334 22.335ZM57 25.0771C49.2121 24.4924 41.3898 26.2586 38.4707 27.2695C11.5577 36.5901 4.3571 56.3779 5.08887 65.0381C7.1697 89.6627 33.0366 88.4294 45.3047 84.7744C15.2854 87.6984 8.58864 72.8404 8.75488 65.0381C9.30335 39.3102 41.0805 27.6764 57 25.0771Z" fill="black"/>
</svg>
